<svg width="55" height="62" viewBox="0 0 55 62" fill="none" xmlns="http://www.w3.org/2000/svg">
<path d="M13.3534 61.3739C13.0408 61.2556 12.7372 61.1149 12.4449 60.953C11.6014 60.4066 11.1932 59.6172 11.1948 58.6022C11.2028 55.0157 11.1948 51.4291 11.2075 47.8426C11.2075 47.3661 11.109 47.2073 10.5976 47.2073C8.358 47.2359 6.11999 47.2231 3.8804 47.2184C2.0919 47.2184 0.986397 46.1161 0.986397 44.3307C0.986397 36.2057 0.986397 28.0818 0.986397 19.9589C0.978943 19.8206 0.982662 19.682 0.997516 19.5443C1.07376 19.0678 1.35172 18.7946 1.833 18.7708C2.31427 18.747 2.62718 19.0074 2.73836 19.4633C2.77484 19.6778 2.78497 19.896 2.76854 20.1129C2.76854 28.1183 2.76854 36.1231 2.76854 44.1274C2.76854 45.1789 3.0195 45.4362 4.04876 45.4362C6.24865 45.4362 8.44853 45.4235 10.6468 45.4474C11.0963 45.4474 11.2329 45.3266 11.2059 44.8819C11.1702 44.2688 11.1702 43.6541 11.2059 43.041C11.2298 42.6089 11.0646 42.5041 10.6627 42.5121C9.59216 42.5359 8.52319 42.5264 7.45263 42.5121C6.21688 42.5041 5.67048 41.9688 5.67048 40.7331C5.67048 32.1739 5.67048 23.6142 5.67048 15.054C5.67048 13.8564 6.22482 13.3068 7.41768 13.3068C20.8129 13.3068 34.2081 13.3068 47.6033 13.3068C48.7644 13.3068 49.3314 13.8596 49.333 15.0159C49.3394 23.6153 49.3394 32.2147 49.333 40.8141C49.333 41.9625 48.7596 42.5025 47.5938 42.5136C46.5232 42.5232 45.4527 42.5391 44.3837 42.5041C43.8992 42.4882 43.7722 42.663 43.7992 43.114C43.8357 43.7256 43.8246 44.3434 43.7992 44.9565C43.7865 45.3028 43.8706 45.4426 44.255 45.4331C46.574 45.4172 48.8915 45.4331 51.2105 45.4219C51.9364 45.4219 52.2318 45.0741 52.2334 44.2751C52.2334 39.9961 52.2334 35.716 52.2334 31.4348C52.2334 24.6986 52.2223 17.9623 52.2493 11.2245C52.2493 10.6002 52.0698 10.4906 51.4916 10.4922C35.4809 10.506 19.4707 10.506 3.46107 10.4922C2.87973 10.4922 2.73201 10.6511 2.75107 11.2118C2.79396 12.5587 2.76854 13.912 2.76219 15.2541C2.76219 15.9467 2.42228 16.3469 1.86635 16.3453C1.31042 16.3438 0.98322 15.9514 0.98322 15.2478C0.98322 11.2663 0.98322 7.28373 0.98322 3.30011C0.98322 1.59898 2.11255 0.490297 3.84228 0.490297C16.2654 0.490297 28.6885 0.490297 41.1117 0.490297C41.8773 0.490297 42.2743 0.787315 42.2886 1.35754C42.3029 1.95317 41.8931 2.27244 41.1005 2.27244H4.18219C2.97503 2.27244 2.76854 2.47893 2.76854 3.6845C2.76854 5.20933 2.77807 6.73574 2.7606 8.26057C2.7606 8.6259 2.86702 8.77202 3.23711 8.72437C3.35557 8.71642 3.47444 8.71642 3.5929 8.72437H51.436C52.2302 8.72437 52.2302 8.72438 52.2302 7.94767C52.2302 6.4652 52.2302 4.97902 52.2302 3.48913C52.2302 2.55994 51.9507 2.27562 51.0358 2.27403H45.9879C45.8497 2.27403 45.71 2.27403 45.5718 2.27403C45.0476 2.23114 44.703 1.88964 44.6902 1.40996C44.6837 1.29022 44.7023 1.17045 44.7448 1.05831C44.7872 0.946176 44.8527 0.844145 44.9368 0.75876C45.021 0.673376 45.1221 0.606526 45.2337 0.562483C45.3452 0.51844 45.4647 0.498184 45.5845 0.503007C47.5858 0.4903 49.5872 0.460117 51.5869 0.518887C52.8973 0.558596 53.9441 1.70698 54.0124 3.01579C54.0235 3.21275 54.0124 3.4113 54.0124 3.60985C54.0124 17.1025 54.0124 30.5962 54.0124 44.0909C54.0124 46.2018 52.9958 47.2168 50.8785 47.2168C48.7612 47.2168 46.5899 47.239 44.4583 47.2025C43.8897 47.1914 43.7849 47.3772 43.7896 47.8982C43.8103 51.2862 43.8008 54.6742 43.8008 58.0637C43.8008 60.0063 43.3925 60.6321 41.6438 61.3691L13.3534 61.3739ZM27.5343 37.7358C22.8995 37.7358 18.2646 37.7438 13.6314 37.7231C13.1167 37.7231 12.9658 37.8375 12.9674 38.3728C12.9881 45.0264 12.9801 51.6817 12.9817 58.3353C12.9817 59.336 13.239 59.5901 14.2524 59.5901H40.7495C41.7597 59.5901 42.0202 59.3344 42.0202 58.3401C42.0202 51.6849 42.0202 45.0312 42.0345 38.376C42.0345 37.8486 41.8963 37.7216 41.3753 37.7231C36.7627 37.7454 32.1485 37.7358 27.5343 37.7358ZM22.2101 30.6041C22.2061 30.6451 22.2093 30.6865 22.2197 30.7264C23.1981 32.3783 24.1845 34.0254 25.1502 35.6837C25.3186 35.9728 25.5489 35.9521 25.8046 35.9521C31.0356 35.9521 36.2656 35.9548 41.4945 35.9601C41.9011 35.9601 42.0424 35.8648 42.0329 35.4375C42.0059 34.1668 42.0329 32.8961 42.0218 31.6349C42.0218 30.8296 41.7264 30.5485 40.8956 30.5421C39.8854 30.5421 38.8752 30.5421 37.865 30.5421C37.1201 30.5421 36.7198 30.2006 36.7325 29.6225C36.7452 29.0443 37.1201 28.7679 37.8444 28.7632C38.8149 28.7632 39.787 28.7632 40.7575 28.7632C42.7699 28.7632 43.8008 29.7861 43.8023 31.7811C43.8023 34.5544 43.8135 37.3292 43.7944 40.1025C43.7944 40.5679 43.8738 40.7823 44.3996 40.7537C45.2308 40.7116 46.0637 40.7116 46.8949 40.7537C47.4159 40.7807 47.5636 40.6251 47.562 40.0946C47.5419 34.6677 47.5419 29.2397 47.562 23.8107C47.562 23.3008 47.4032 23.1976 46.9267 23.1991C42.0154 23.2118 37.1106 23.2118 32.1866 23.2118C24.1389 23.2118 16.0954 23.2118 8.05621 23.2118C7.69724 23.2118 7.43516 23.1864 7.43675 23.7138C7.45581 29.2201 7.45581 34.7264 7.43675 40.2328C7.43675 40.6727 7.60829 40.7617 7.99744 40.7522C8.86786 40.7315 9.74464 40.7204 10.6119 40.7522C11.0884 40.7712 11.2043 40.5933 11.2012 40.1422C11.1805 37.3499 11.1901 34.5559 11.1916 31.7636C11.1916 29.7988 12.2288 28.7616 14.1936 28.7616H33.0396C33.1985 28.7573 33.3576 28.761 33.5161 28.7727C33.9926 28.8204 34.2833 29.0904 34.3103 29.5748C34.3436 30.0799 34.0863 30.4071 33.5844 30.504C33.3696 30.5375 33.152 30.5502 32.9348 30.5421C29.5674 30.5421 26.1996 30.5421 22.8312 30.5421C22.6263 30.5437 22.4055 30.485 22.2101 30.6041ZM22.2101 15.0937C17.4943 15.0937 12.78 15.1017 8.06415 15.0826C7.56223 15.0826 7.4288 15.2287 7.43992 15.7179C7.46851 17.4413 7.46216 19.1647 7.43992 20.8881C7.43992 21.2899 7.53522 21.4313 7.96408 21.4297C17.4943 21.4181 27.0245 21.4181 36.5546 21.4297C36.9533 21.4297 37.0534 21.3042 37.0486 20.923C37.0312 19.1996 37.0153 17.4747 37.0486 15.7529C37.0629 15.1779 36.8612 15.0826 36.3466 15.0842C31.6402 15.1017 26.926 15.0937 22.2101 15.0937ZM43.1908 21.4218C44.4774 21.4218 45.764 21.4075 47.0506 21.4218C47.4397 21.4297 47.5636 21.3169 47.5588 20.9262C47.5429 19.144 47.5429 17.3619 47.5588 15.5798C47.5588 15.1858 47.4318 15.0762 47.0474 15.0794C44.4732 15.0932 41.899 15.0932 39.3247 15.0794C38.9356 15.0794 38.8133 15.1922 38.8181 15.5829C38.8361 17.3651 38.8361 19.1467 38.8181 20.9278C38.8181 21.3265 38.9467 21.4281 39.3295 21.4218C40.6161 21.4075 41.9027 21.4218 43.1908 21.4218ZM23.133 35.9521C23.1234 35.8393 23.133 35.7933 23.1139 35.7647C22.1371 34.1144 21.1523 32.4688 20.1834 30.8138C20.0325 30.558 19.8323 30.539 19.5861 30.539C17.7452 30.539 15.9043 30.539 14.0634 30.539C13.2597 30.539 12.9817 30.8376 12.977 31.6667C12.977 32.6356 12.977 33.6061 12.977 34.5766C12.977 35.9473 12.977 35.9473 14.37 35.9473L23.133 35.9521Z" fill="#00B0ED"/>
<path d="M42.4762 5.49957C42.4748 5.62241 42.4489 5.74372 42.4 5.8564C42.3511 5.96909 42.2801 6.07087 42.1914 6.15578C42.1026 6.2407 41.9978 6.30704 41.8831 6.35092C41.7683 6.39479 41.646 6.41532 41.5232 6.41129C41.3997 6.41898 41.2759 6.40103 41.1597 6.35857C41.0434 6.31612 40.9372 6.25009 40.8477 6.16461C40.7582 6.07914 40.6873 5.97607 40.6396 5.8619C40.5918 5.74773 40.5682 5.62491 40.5702 5.50116C40.5702 4.99448 40.945 4.64662 41.4867 4.6355C42.0283 4.62438 42.4683 4.98653 42.4762 5.49957Z" fill="#00B0ED"/>
<path d="M45.2512 4.63538C45.815 4.64332 46.1962 5.02294 46.1756 5.55187C46.1645 5.79038 46.0593 6.01474 45.883 6.17581C45.7067 6.33689 45.4738 6.42152 45.2353 6.41117C45.1123 6.41671 44.9895 6.39755 44.8741 6.35484C44.7587 6.31212 44.653 6.2467 44.5632 6.16246C44.4735 6.07821 44.4016 5.97684 44.3517 5.86433C44.3018 5.75182 44.2749 5.63045 44.2727 5.50739C44.2759 4.99276 44.6873 4.62744 45.2512 4.63538Z" fill="#00B0ED"/>
<path d="M48.979 4.63538C49.546 4.65127 49.9098 5.0293 49.8796 5.57093C49.8725 5.68873 49.8422 5.80396 49.7904 5.90999C49.7386 6.01602 49.6663 6.11074 49.5777 6.1887C49.4891 6.26666 49.386 6.32632 49.2742 6.36423C49.1625 6.40214 49.0443 6.41755 48.9266 6.40958C48.8038 6.41169 48.6817 6.38943 48.5676 6.34407C48.4534 6.29871 48.3494 6.23117 48.2615 6.14535C48.1736 6.05953 48.1036 5.95713 48.0556 5.84409C48.0075 5.73104 47.9823 5.60958 47.9815 5.48675C47.9958 4.98165 48.4215 4.62744 48.979 4.63538Z" fill="#00B0ED"/>
<path d="M25.8666 55.3125C25.0947 55.3125 24.7421 54.7502 24.9517 53.9925C25.4028 52.3756 25.8587 50.7597 26.3193 49.1448C26.9155 47.0355 27.5116 44.9251 28.1078 42.8136C28.2317 42.3768 28.4747 42.0576 28.9512 42.0194C29.1309 42.0007 29.3118 42.0403 29.4671 42.1324C29.6225 42.2245 29.744 42.3643 29.8137 42.5309C29.9519 42.8168 29.882 43.1043 29.7994 43.3966C28.8114 46.8751 27.8272 50.3541 26.8466 53.8337C26.7609 54.1371 26.6783 54.442 26.5734 54.7407C26.5247 54.8948 26.4317 55.0311 26.306 55.1328C26.1803 55.2345 26.0275 55.297 25.8666 55.3125Z" fill="#00B0ED"/>
<path d="M22.5118 44.7463C22.5309 45.1275 22.3006 45.3674 22.0353 45.5977C21.0315 46.4935 20.0388 47.4037 19.0174 48.2804C18.6839 48.5664 18.6331 48.7252 19 49.0381C20.0245 49.9085 21.0156 50.8218 22.0179 51.7224C22.5674 52.2164 22.6532 52.7374 22.2752 53.152C21.8971 53.5665 21.3714 53.53 20.8171 53.036C19.5019 51.867 18.1926 50.6921 16.889 49.5114C16.2187 48.9063 16.2156 48.4202 16.8732 47.8293C18.2264 46.6111 19.5893 45.4023 20.9441 44.1841C21.2507 43.9093 21.5906 43.7901 21.9782 43.9585C22.1362 44.0207 22.2717 44.1292 22.367 44.2698C22.4622 44.4104 22.5127 44.5765 22.5118 44.7463Z" fill="#00B0ED"/>
<path d="M33.475 53.4403C32.9826 53.4403 32.6935 53.2497 32.5521 52.8828C32.3933 52.4619 32.5378 52.1156 32.8698 51.8234C33.7857 51.0091 34.7006 50.1911 35.6145 49.3693C36.3991 48.6657 36.3975 48.6657 35.6018 47.9557C34.7171 47.1615 33.8292 46.3673 32.9476 45.5732C32.4314 45.1046 32.3536 44.5915 32.7173 44.1818C33.081 43.772 33.6052 43.7831 34.1246 44.2437C35.4736 45.4382 36.8174 46.6379 38.1559 47.8429C38.7912 48.41 38.7817 48.9151 38.1447 49.4901C36.8089 50.6972 35.462 51.8949 34.1198 53.0957C33.9054 53.2863 33.691 53.4626 33.475 53.4403Z" fill="#00B0ED"/>
</svg>
