<svg width="61" height="61" viewBox="0 0 61 61" fill="none" xmlns="http://www.w3.org/2000/svg">
<path fill-rule="evenodd" clip-rule="evenodd" d="M58.206 46.9061C58.9556 46.6215 59.7055 46.3369 60.4922 46.1597L60.5 39.9262C59.7139 39.7513 58.9652 39.4662 58.2165 39.1812L58.2163 39.1811C57.84 39.0378 57.4636 38.8945 57.0826 38.7652C56.999 38.7204 56.9301 38.6525 56.8839 38.5696C56.8439 38.5021 56.8119 38.4302 56.7884 38.3553C56.691 38.1143 56.5706 37.873 56.4501 37.6316L56.4501 37.6316C56.1741 37.0786 55.8981 36.5255 55.8981 35.9755C55.9036 35.4354 56.2077 34.8977 56.5105 34.3623L56.5105 34.3623L56.5106 34.3622L56.5106 34.3622L56.5106 34.3622L56.5106 34.3622L56.5106 34.3621L56.5106 34.3621L56.5106 34.3621L56.5106 34.362L56.5106 34.362C56.6368 34.139 56.7627 33.9164 56.8667 33.6942L56.8732 33.6804C57.4065 32.5426 57.4075 32.5405 56.4974 31.6289C56.2748 31.4063 56.0533 31.183 55.8319 30.9598C55.2564 30.3796 54.6814 29.7999 54.0893 29.235C53.9551 29.1129 53.8503 28.9621 53.7825 28.7939C53.7148 28.6256 53.6859 28.4443 53.6981 28.2633C53.7016 25.8715 53.6979 23.4798 53.6942 21.088C53.6864 16.1416 53.6787 11.1952 53.7356 6.24875C53.7669 3.66083 52.7483 1.58924 49.9583 0.928955H44.3362C44.4253 1.25093 44.411 1.57792 44.3968 1.90382C44.3916 2.02452 44.3863 2.14507 44.3863 2.26517C44.3832 2.60157 44.5005 2.69075 44.8275 2.69075C45.7768 2.68449 46.7267 2.68658 47.6768 2.68866C48.152 2.6897 48.6272 2.69075 49.1024 2.69075C50.8534 2.69544 51.9487 3.78131 51.9487 5.5431C51.9487 5.82695 51.9464 6.11182 51.9442 6.39716L51.9442 6.39856V6.39861V6.39866V6.39872V6.39877V6.39883V6.39888V6.39894V6.39899V6.39905V6.3991C51.9397 6.97192 51.9351 7.54661 51.9487 8.11851C51.9565 8.44239 51.8689 8.59729 51.5278 8.54722C51.4303 8.54096 51.3326 8.54096 51.2352 8.54722C35.1507 8.53679 19.0667 8.54201 2.98324 8.56287C2.36987 8.56443 2.23059 8.39232 2.26815 7.82279C2.30319 7.29272 2.29532 6.7596 2.28744 6.22609C2.28406 5.99738 2.28068 5.76861 2.28068 5.53997C2.28694 3.78757 3.36973 2.69231 5.13163 2.69231H41.7137C42.1688 2.69231 42.3949 2.69231 42.5073 2.57927C42.6181 2.46767 42.6181 2.24591 42.6181 1.80521V1.80516C42.619 1.7284 42.6156 1.65119 42.6123 1.57389L42.6122 1.57368C42.6029 1.35959 42.5936 1.14481 42.6729 0.936786H4.25538C4.20624 0.968508 4.15377 0.994742 4.09891 1.01502C1.73928 1.62054 0.5 3.20082 0.5 5.61664V39.5804C0.501565 42.2794 2.37768 44.157 5.06277 44.157H11.7395C12.954 44.157 12.954 44.157 12.9688 42.9865L12.9694 42.9413C12.9741 42.4969 12.8411 42.3905 12.4077 42.3905C10.6612 42.4066 8.91473 42.4041 7.16825 42.4017C6.53319 42.4008 5.89813 42.3999 5.26306 42.3999C3.28992 42.3999 2.25564 41.3829 2.25564 39.4271C2.26502 29.9411 2.26086 20.4547 2.24312 10.9677C2.24156 10.4342 2.37456 10.2996 2.90971 10.2996C14.6797 10.308 26.4507 10.3121 38.2228 10.3121H51.3995L51.4072 10.3121C51.7236 10.3105 51.9283 10.3095 51.9283 10.7549C51.919 16.6464 51.919 22.5399 51.9283 28.4354C51.9283 28.7343 51.8032 28.861 51.5669 29.0175C50.3683 29.8201 49.1619 29.9954 47.9101 29.1583C47.7079 29.04 47.4905 28.9499 47.2639 28.8907C47.1437 28.8538 47.0349 28.7866 46.9481 28.6957C46.8613 28.6047 46.7992 28.4931 46.7678 28.3713C46.6347 27.9785 46.4953 27.5881 46.356 27.1977L46.356 27.1977C46.1678 26.6705 45.9797 26.1434 45.8071 25.6113C45.7007 25.2717 45.5286 25.1763 45.1812 25.1763C44.0453 25.19 42.9043 25.1878 41.7621 25.1857H41.7619H41.7618H41.7616H41.7615H41.7614H41.7612H41.7611H41.761H41.7608H41.7607L41.7582 25.1857C41.3377 25.1849 40.917 25.1841 40.4964 25.1841C39.5815 25.1841 39.581 25.1857 39.2686 26.0728L39.268 26.0744C39.1782 26.3289 39.1032 26.5927 39.0283 26.8562C38.8527 27.474 38.6777 28.0897 38.3135 28.5778C37.9709 29.0371 37.3961 29.2213 36.8163 29.4071L36.8163 29.4072L36.8163 29.4072L36.8163 29.4072L36.8162 29.4072L36.8162 29.4072L36.8162 29.4072L36.8162 29.4072L36.8162 29.4072L36.8162 29.4072L36.8161 29.4072C36.517 29.5031 36.2166 29.5994 35.9461 29.7341C35.9275 29.7399 35.9092 29.7467 35.8913 29.7544C35.6472 29.8984 35.425 29.8561 35.1778 29.7341C34.8403 29.5672 34.4993 29.4072 34.1583 29.2472C33.6518 29.0096 33.1454 28.772 32.6507 28.5121C32.2564 28.3009 32.0248 28.3775 31.7119 28.6905C31.0135 29.4203 30.2966 30.1315 29.5796 30.8427L29.5795 30.8428C29.2989 31.1212 29.0183 31.3995 28.7389 31.6789C27.8554 32.5624 27.8563 32.5645 28.3818 33.6833L28.3884 33.6973C28.4944 33.9265 28.6247 34.1557 28.7551 34.3853C29.0557 34.9144 29.3571 35.445 29.3648 35.9786C29.3722 36.5126 29.1065 37.0488 28.8398 37.5871C28.7119 37.8453 28.5838 38.104 28.4854 38.3631C28.4377 38.4992 28.357 38.6213 28.2505 38.7185C28.144 38.8157 28.015 38.885 27.8751 38.9201C27.4073 39.0753 26.9431 39.2421 26.4789 39.409L26.4786 39.4091C26.044 39.5653 25.6093 39.7216 25.1713 39.8683C24.8693 39.9684 24.73 40.1061 24.7535 40.4472C24.7695 40.6833 24.7651 40.9208 24.7607 41.1585V41.1585V41.1586V41.1586V41.1586V41.1587V41.1587V41.1587V41.1588V41.1588V41.1589C24.7561 41.4095 24.7514 41.6605 24.7707 41.9102C24.8036 42.3342 24.6455 42.4202 24.245 42.4202C22.1341 42.4071 20.0223 42.4086 17.911 42.41H17.9094H17.9093H17.9092H17.909H17.9089H17.9087H17.9086H17.9085H17.9083H17.9082H17.908C17.2486 42.4104 16.5892 42.4109 15.9299 42.4109C14.7435 42.4109 14.7435 42.4124 14.7231 43.5331L14.7219 43.5953C14.7141 44.0569 14.8409 44.1789 15.3103 44.1789C17.9641 44.1617 20.6147 44.1664 23.2748 44.1789C23.4144 44.1794 23.5646 44.1619 23.7153 44.1444H23.7153H23.7154H23.7154H23.7154H23.7155H23.7155H23.7156H23.7156H23.7156C24.0868 44.1014 24.4605 44.0581 24.6831 44.2806C24.8887 44.492 24.8413 44.8712 24.7948 45.2436C24.7779 45.3784 24.7612 45.5124 24.7566 45.6372C24.7378 45.9986 24.8818 46.1472 25.2073 46.2536C25.6538 46.4006 26.0965 46.5599 26.5389 46.7191L26.5389 46.7191L26.539 46.7191L26.539 46.7191L26.539 46.7192L26.5391 46.7192L26.5391 46.7192L26.5391 46.7192L26.5392 46.7192L26.5392 46.7192L26.5393 46.7192C26.9773 46.8768 27.4151 47.0344 27.8564 47.1799C28.0057 47.2168 28.1434 47.2906 28.2568 47.3945C28.3702 47.4983 28.4558 47.629 28.5057 47.7745C28.7514 48.4316 29.0237 49.0794 29.3085 49.7193C29.3741 49.8475 29.4067 49.99 29.4034 50.134C29.4001 50.2779 29.3611 50.4188 29.2897 50.5439C29.0908 50.9365 28.903 51.335 28.7152 51.7335L28.7152 51.7336L28.7152 51.7336L28.7151 51.7336L28.7151 51.7337L28.7151 51.7337L28.7151 51.7337L28.7151 51.7338L28.715 51.7338L28.715 51.7338L28.715 51.7339C28.504 52.1817 28.2929 52.6296 28.066 53.0692C27.8798 53.4275 27.9362 53.645 28.2225 53.9204C28.958 54.6233 29.6781 55.3495 30.398 56.0753L30.3988 56.0762L30.399 56.0763L30.3991 56.0764L30.3992 56.0766L30.3994 56.0767L30.3995 56.0768L30.3997 56.077L30.3998 56.0771L30.3999 56.0773L30.4001 56.0774C30.6843 56.364 30.9684 56.6505 31.2534 56.9355C32.1401 57.8236 32.1422 57.8226 33.258 57.2987L33.2719 57.2922C33.498 57.1869 33.7247 57.0588 33.9518 56.9304C34.4838 56.6296 35.0182 56.3275 35.5533 56.3143C36.0679 56.3017 36.591 56.5604 37.1169 56.8206L37.1169 56.8206C37.3714 56.9465 37.6265 57.0727 37.8817 57.1686C38.0286 57.2145 38.1616 57.2966 38.2685 57.4073C38.3754 57.518 38.4528 57.6539 38.4935 57.8023C38.6321 58.2335 38.7872 58.6594 38.9422 59.0853C39.1005 59.52 39.2588 59.9547 39.3995 60.3949C39.5246 60.7876 39.703 60.9378 40.1349 60.9284C41.1571 60.906 42.1792 60.9101 43.2008 60.9142H43.201H43.2012H43.2013H43.2015H43.2017H43.2018H43.202H43.2022H43.2024H43.2025C43.605 60.9159 44.0075 60.9175 44.4098 60.9175C45.6563 60.9175 45.6569 60.9159 46.0756 59.7525L46.0809 59.7377C46.1646 59.5047 46.2314 59.2576 46.2981 59.0106L46.2981 59.0106L46.2981 59.0105L46.2981 59.0105L46.2982 59.0105L46.2982 59.0104L46.2982 59.0104L46.2982 59.0104L46.2982 59.0103L46.2982 59.0103L46.2982 59.0103C46.4572 58.4217 46.6162 57.8335 47.0041 57.4346C47.3747 57.0535 47.9364 56.863 48.5027 56.6709C48.7781 56.5775 49.0545 56.4837 49.3105 56.3675C49.4399 56.3045 49.5829 56.2748 49.7266 56.281C49.8704 56.2873 50.0103 56.3294 50.1336 56.4035C50.5276 56.6005 50.9268 56.7884 51.3259 56.9763L51.326 56.9763L51.3261 56.9764L51.3262 56.9764L51.3263 56.9765L51.3264 56.9765L51.3265 56.9766L51.3266 56.9766L51.3267 56.9766L51.3268 56.9767L51.3268 56.9767L51.327 56.9768L51.3271 56.9768L51.3272 56.9769L51.3273 56.977L51.3274 56.977L51.3275 56.9771L51.3276 56.9771L51.3278 56.9772L51.3279 56.9772L51.328 56.9773C51.7747 57.1876 52.2214 57.3979 52.6607 57.6208C52.9971 57.7882 53.2036 57.7585 53.4665 57.4878C54.2342 56.696 55.0155 55.9185 55.7966 55.1411C56.0805 54.8585 56.3644 54.576 56.6476 54.2928C57.0299 53.9145 57.2192 53.7271 57.2558 53.5136C57.2917 53.3041 57.1806 53.0694 56.9606 52.6045C56.8462 52.3644 56.7112 52.1264 56.5762 51.8883L56.5761 51.8882C56.2661 51.3416 55.956 50.7949 55.895 50.2216C55.8353 49.6517 56.1171 49.1036 56.4005 48.5524L56.4006 48.5523C56.5405 48.2802 56.6808 48.0073 56.7806 47.7307C56.8019 47.6552 56.8335 47.5831 56.8745 47.5163C56.9216 47.4341 56.9903 47.3665 57.0732 47.3207C57.4536 47.1917 57.8295 47.049 58.2054 46.9063L58.2055 46.9063L58.2056 46.9062L58.2056 46.9062L58.2057 46.9062L58.2057 46.9062L58.2058 46.9062L58.2058 46.9061L58.2059 46.9061L58.206 46.9061L58.206 46.9061ZM58.7309 42.6096C58.7329 42.7932 58.735 42.9842 58.735 43.1869V43.1932C58.7207 43.3566 58.7425 43.5465 58.7651 43.7425L58.7651 43.7425C58.8092 44.1262 58.856 44.5329 58.6395 44.8095C58.3344 45.1881 57.6459 45.3242 57.0998 45.4275C55.9278 45.6497 55.3113 46.3334 54.989 47.4396C54.7581 48.164 54.4698 48.8687 54.1268 49.5472C54.0186 49.7388 53.9635 49.9558 53.967 50.1758C53.9706 50.3958 54.0328 50.6109 54.1472 50.7989C54.3603 51.1808 54.5433 51.5797 54.7264 51.9787L54.7264 51.9788C54.8524 52.2533 54.9783 52.5279 55.1142 52.797C55.2456 53.0598 55.2487 53.2398 55.0187 53.4588C54.3396 54.1055 53.6777 54.7679 53.0331 55.4459C52.8093 55.6806 52.6294 55.6618 52.3696 55.5335C52.0009 55.3488 51.6279 55.1725 51.2547 54.996L51.2546 54.996C50.8881 54.8227 50.5215 54.6494 50.1586 54.468C50.041 54.4025 49.9094 54.3663 49.7748 54.3625C49.6403 54.3587 49.5068 54.3873 49.3856 54.4461C48.2204 54.9426 47.0505 55.4256 45.8759 55.895C45.7588 55.938 45.6536 56.0085 45.5692 56.1005C45.4848 56.1925 45.4237 56.3034 45.3909 56.4238C45.2852 56.7352 45.1737 57.0442 45.0622 57.3533C44.8963 57.8132 44.7304 58.2732 44.5835 58.7411C44.4755 59.0837 44.2987 59.1776 43.9576 59.1698C43.0594 59.1447 42.1612 59.1416 41.2646 59.1698C40.9235 59.1807 40.789 59.0524 40.6904 58.7505C40.5588 58.3493 40.4164 57.954 40.2737 57.5578L40.2736 57.5577C40.1397 57.1859 40.0056 56.8135 39.8798 56.4348C39.8433 56.3055 39.7762 56.187 39.6841 56.0892C39.5921 55.9915 39.4778 55.9173 39.351 55.8731C38.1941 55.412 37.0419 54.9358 35.8944 54.4445C35.7734 54.3855 35.6399 54.3567 35.5053 54.3605C35.3707 54.3643 35.239 54.4007 35.1215 54.4664C34.7858 54.6335 34.4466 54.7934 34.1073 54.9533C33.7064 55.1422 33.3055 55.3311 32.9105 55.532C32.6179 55.6822 32.4317 55.6493 32.2032 55.4099C31.5711 54.745 30.9201 54.0988 30.2582 53.4635C30.036 53.2507 30.011 53.077 30.1487 52.8048C30.3615 52.3865 30.5614 51.962 30.7614 51.5372L30.7615 51.5371L30.7615 51.5369C30.9101 51.2214 31.0587 50.9058 31.2127 50.5924C31.2805 50.4764 31.3195 50.3458 31.3266 50.2116C31.3337 50.0775 31.3086 49.9435 31.2534 49.821C30.7527 48.6569 30.2708 47.485 29.8013 46.31C29.7603 46.1919 29.6916 46.0854 29.6009 45.9994C29.5103 45.9134 29.4003 45.8503 29.2803 45.8155C28.9045 45.6888 28.5309 45.5554 28.1572 45.422C27.7419 45.2737 27.3266 45.1255 26.9081 44.9863C26.6281 44.8939 26.5201 44.7641 26.5201 44.4512C26.5404 43.5124 26.5373 42.5736 26.5201 41.6348C26.5025 41.522 26.5292 41.4069 26.5945 41.3133C26.6598 41.2197 26.7587 41.155 26.8706 41.1325C27.2045 41.0192 27.5354 40.8989 27.8666 40.7786L27.867 40.7784C28.304 40.6196 28.7414 40.4606 29.1864 40.3174C29.3343 40.279 29.4705 40.2046 29.5827 40.1009C29.6949 39.9971 29.7797 39.8673 29.8295 39.7228C30.2718 38.5983 30.7344 37.4827 31.2174 36.376C31.2892 36.2286 31.3234 36.0657 31.3168 35.9019C31.3103 35.7381 31.2632 35.5784 31.1799 35.4372C31.0043 35.0916 30.8396 34.7417 30.6749 34.3919L30.6748 34.3919C30.5078 34.0371 30.3409 33.6826 30.1628 33.3328C30.0188 33.048 30.022 32.8587 30.2708 32.624C30.9415 31.994 31.5898 31.3452 32.2157 30.6776C32.4583 30.4241 32.6507 30.4397 32.9277 30.5806C33.1627 30.6996 33.4032 30.809 33.6436 30.9184C34.0068 31.0835 34.3701 31.2488 34.7146 31.4474C34.9482 31.5997 35.2187 31.6858 35.4974 31.6962C35.776 31.7067 36.0523 31.6412 36.2966 31.5068C37.2043 31.0747 38.1441 30.704 39.0813 30.3342L39.0815 30.3341L39.3134 30.2426C39.45 30.1982 39.5735 30.1209 39.6731 30.0175C39.7727 29.9141 39.8453 29.7877 39.8845 29.6496C40.0042 29.2868 40.1343 28.9277 40.2643 28.5686C40.4062 28.1766 40.5481 27.7848 40.6763 27.3887C40.7811 27.0664 40.9173 26.9209 41.2834 26.9334C42.18 26.9631 43.0797 26.9631 43.9763 26.9334C44.3378 26.9224 44.4818 27.0585 44.5866 27.384C44.7173 27.8047 44.8667 28.2197 45.0162 28.635L45.0163 28.635L45.0163 28.6351L45.0163 28.6351L45.0163 28.6351L45.0163 28.6352L45.0163 28.6352L45.0163 28.6352L45.0163 28.6352L45.0163 28.6353L45.0164 28.6353C45.1371 28.9705 45.2579 29.306 45.369 29.6449C45.409 29.7824 45.4819 29.9082 45.5814 30.0112C45.6809 30.1142 45.804 30.1915 45.9401 30.2363C47.0813 30.688 48.2152 31.1574 49.3418 31.6445C49.4709 31.7089 49.6137 31.741 49.7578 31.738C49.902 31.735 50.0433 31.697 50.1696 31.6273C50.5141 31.4547 50.8628 31.2901 51.2115 31.1254C51.6025 30.9409 51.9936 30.7562 52.379 30.5602C52.4294 30.5242 52.4865 30.4985 52.547 30.4847C52.6074 30.4709 52.67 30.4691 52.7311 30.4796C52.7922 30.4901 52.8506 30.5126 52.903 30.5457C52.9553 30.5789 53.0006 30.6221 53.0362 30.6729C53.6856 31.3488 54.3506 32.0091 55.0234 32.66C55.1154 32.7297 55.1768 32.8325 55.1946 32.9466C55.2124 33.0607 55.1853 33.1773 55.1189 33.2718C54.9204 33.6662 54.7319 34.0652 54.5434 34.4643L54.5434 34.4643L54.5432 34.4646C54.3826 34.8048 54.2218 35.145 54.0548 35.4826C53.982 35.6072 53.9403 35.7475 53.9335 35.8916C53.9267 36.0358 53.9549 36.1794 54.0157 36.3103C54.5071 37.4541 54.9765 38.6088 55.4459 39.7666C55.49 39.8933 55.5641 40.0075 55.6619 40.0993C55.7598 40.1911 55.8784 40.2579 56.0076 40.2939C56.4129 40.4287 56.815 40.5721 57.2171 40.7155L57.2173 40.7156L57.2175 40.7156L57.2176 40.7157L57.2178 40.7158L57.218 40.7158L57.2182 40.7159L57.2184 40.716L57.2186 40.716L57.2188 40.7161L57.219 40.7162L57.2193 40.7163L57.2196 40.7164L57.2199 40.7165L57.2202 40.7166L57.2205 40.7167L57.2208 40.7168L57.2211 40.7169L57.2214 40.717L57.2217 40.7171L57.222 40.7172C57.6069 40.8545 57.9918 40.9918 58.3798 41.1216C58.6395 41.2076 58.7491 41.3359 58.735 41.6223C58.7237 41.9434 58.7272 42.2632 58.7309 42.6096ZM18.2941 18.4202C22.4657 18.4108 26.6388 18.4108 30.812 18.4108L30.8136 18.6361H42.7463L42.7647 18.6361C43.3043 18.6369 43.5714 18.6373 43.7093 18.504C43.8445 18.3733 43.8554 18.114 43.877 17.6005V17.6005L43.8807 17.5111C43.9011 16.9869 43.7493 16.8696 43.2392 16.8696C35.1474 16.8028 27.0551 16.7319 18.9622 16.6568L18.9568 16.6568H18.9568C18.3532 16.6514 18.0556 16.6487 17.9053 16.7962C17.7591 16.9397 17.7523 17.2253 17.739 17.7889V17.7889L17.737 17.8741C17.7261 18.3279 17.8716 18.4202 18.2941 18.4202ZM27.9686 21.9274H27.9686C24.7594 21.926 21.55 21.9246 18.3397 21.9391C17.85 21.9391 17.7138 21.8061 17.7357 21.3211L17.7384 21.2451C17.7568 20.7123 17.7662 20.4416 17.9063 20.3053C18.051 20.1645 18.3353 20.1672 18.9132 20.1726L18.914 20.1726C27.0068 20.2477 35.0991 20.3176 43.1909 20.3823C43.7683 20.3823 43.9045 20.5388 43.8779 21.0973L43.8733 21.193C43.8509 21.6644 43.8394 21.9044 43.7136 22.0265C43.583 22.1531 43.3293 22.1527 42.8123 22.1519L42.7935 22.1519H30.7998V21.9282C29.8562 21.9282 28.9126 21.9278 27.969 21.9274H27.969H27.9689H27.9689H27.9688H27.9688H27.9687H27.9687H27.9686ZM10.649 23.0984C10.7477 23.21 10.8486 23.324 11.0168 23.3661C11.0524 23.3346 11.0896 23.303 11.1279 23.2707L11.128 23.2705L11.1281 23.2704L11.1283 23.2703C11.164 23.2401 11.2005 23.2091 11.2375 23.1768C11.546 22.8678 11.8542 22.5583 12.1624 22.2488L12.1629 22.2483L12.163 22.2482L12.163 22.2482L12.1631 22.2481L12.1631 22.2481L12.1632 22.248L12.1633 22.2479L12.1633 22.2479L12.1634 22.2478C13.0535 21.3539 13.9436 20.46 14.8442 19.5781C15.1039 19.3246 15.0272 19.1885 14.8113 18.9757C13.8365 18.0197 12.8585 17.0371 11.9103 16.0811C10.9666 15.1297 10.9621 15.1344 10.0368 16.089L10.0232 16.103C9.78693 16.3471 9.79788 16.4785 10.0326 16.7038C10.444 17.1021 10.8486 17.5078 11.2531 17.9133C11.6208 18.2819 11.9884 18.6504 12.3609 19.0132C12.5659 19.2198 12.5894 19.3481 12.3609 19.564C11.9172 19.9875 11.4856 20.423 11.0539 20.8585L11.0534 20.859L11.0521 20.8603C10.88 21.034 10.7078 21.2076 10.5349 21.3805C9.73217 22.1832 9.73061 22.1848 10.5584 23C10.5896 23.0312 10.6192 23.0647 10.649 23.0984ZM10.9791 35.2183C10.947 35.1916 10.9168 35.1674 10.8882 35.1446L10.8882 35.1445C10.833 35.1005 10.784 35.0613 10.7397 35.018C10.5301 34.7865 10.3075 34.5671 10.0731 34.3608C9.72728 34.0917 9.80708 33.9071 10.0903 33.638C10.4871 33.2607 10.8729 32.8721 11.2587 32.4834C11.6153 32.1242 11.972 31.7649 12.3373 31.4146C12.583 31.1799 12.5626 31.0454 12.3373 30.8216C11.9596 30.4577 11.5897 30.0855 11.2199 29.7134C10.8328 29.3239 10.4457 28.9345 10.0496 28.5544C9.79458 28.3104 9.77736 28.1742 10.0402 27.9098L10.0795 27.8705C10.526 27.4239 10.7495 27.2003 10.9731 27.2002C11.1972 27.2 11.4215 27.4243 11.8706 27.8735L11.8866 27.8895C12.1183 28.1215 12.3498 28.3539 12.5812 28.5862L12.5817 28.5867L12.582 28.587C13.3146 29.3224 14.047 30.0578 14.7877 30.7841C15.0208 31.0125 15.1006 31.1533 14.8221 31.4303C13.9447 32.2825 13.0815 33.1497 12.2178 34.0173L12.2178 34.0173C11.897 34.3396 11.5761 34.6619 11.2545 34.9836C11.2018 35.0324 11.1467 35.0781 11.0883 35.1265L11.0882 35.1266C11.053 35.1558 11.0167 35.1859 10.9791 35.2183ZM20.3871 30.2352H20.3874H20.3877H20.388H20.3883H20.3885H20.3888C20.7534 30.2368 21.1182 30.2384 21.4831 30.2384L23.8725 30.2321C24.4984 30.2321 24.809 30.2321 24.9643 30.0768C25.1173 29.9238 25.1196 29.6202 25.1241 29.0173L25.1243 28.9898C25.129 28.5861 25.0257 28.4656 24.6079 28.4656C23.2348 28.4817 21.8642 28.4793 20.4906 28.4768L20.4886 28.4768C19.9892 28.4759 19.4894 28.475 18.9889 28.475C17.7245 28.475 17.7245 28.475 17.7367 29.7362L17.7371 29.7784C17.7371 30.1382 17.8467 30.2462 18.2065 30.2384C18.9301 30.229 19.6578 30.2321 20.3869 30.2352H20.3869H20.387H20.387H20.387H20.3871H20.3871ZM21.4519 33.7508C21.157 33.7508 20.8621 33.75 20.5672 33.7492C19.7667 33.747 18.9663 33.7449 18.1659 33.7586C17.8311 33.7586 17.7434 33.6506 17.7356 33.3236L17.7349 33.2913C17.7196 32.646 17.712 32.3216 17.8704 32.1585C18.0305 31.9937 18.3603 31.9937 19.0234 31.9937C19.5326 31.9937 20.042 31.995 20.5514 31.9963H20.5515H20.5517H20.5518H20.552H20.5521H20.5523H20.5525H20.5526H20.5528H20.553C21.8963 31.9997 23.24 32.0031 24.5829 31.9827C25.0351 31.9827 25.1337 32.1142 25.1275 32.5413L25.1266 32.5952C25.1179 33.1646 25.1135 33.4535 24.9669 33.6C24.816 33.7508 24.5143 33.7508 23.9023 33.7508H21.4519ZM7.78973 5.79968V5.79966C7.78747 5.65329 7.78848 5.53115 7.78931 5.42927V5.42927V5.42926V5.42925C7.79152 5.16024 7.79257 5.03248 7.72936 4.97292C7.67219 4.91906 7.56246 4.92097 7.35349 4.92462C7.27489 4.92599 7.18225 4.92761 7.07309 4.92659C6.03254 4.91564 6.03253 4.92346 6.03253 5.65571C6.03253 6.68055 6.03254 6.68055 6.83994 6.68055H6.83994C7.78973 6.68055 7.78973 6.68055 7.78973 5.79968ZM11.3043 5.77774C11.3043 6.22524 11.3043 6.45092 11.1914 6.56472C11.0766 6.6805 10.8451 6.6805 10.378 6.6805H10.3779H10.3779C9.54707 6.6805 9.54706 6.6805 9.54706 5.67756C9.54706 4.9234 9.54706 4.9234 10.5641 4.9234C11.3043 4.9234 11.3043 4.9234 11.3043 5.77769V5.7777V5.77774ZM52.5982 43.0008L52.6637 42.932C52.6383 42.9052 52.6134 42.8787 52.5889 42.8527L52.5888 42.8525C52.503 42.7611 52.422 42.6749 52.3429 42.6018L49.6186 40.0421L49.6147 40.0384L49.6147 40.0384C49.1299 39.5822 48.888 39.3546 48.6555 39.3638C48.424 39.3729 48.2018 39.6168 47.7584 40.1034L47.7316 40.1328C47.4984 40.3879 47.5313 40.5177 47.7691 40.7305C48.0796 41.0103 48.3833 41.2969 48.6868 41.5834L48.6868 41.5835L48.6869 41.5835L48.6871 41.5837L48.6872 41.5838C49.0489 41.9252 49.4104 42.2664 49.783 42.5956C50.0615 42.8444 50.1131 42.9993 49.8002 43.2637C49.4737 43.5391 49.1652 43.8367 48.8568 44.1343C48.7026 44.2831 48.5484 44.432 48.3919 44.578L48.3862 44.5832C47.9016 45.0302 47.6582 45.2547 47.6538 45.4837C47.6494 45.7148 47.8882 45.9506 48.368 46.4242L48.3919 46.4477C48.6141 46.6605 48.7393 46.6543 48.9552 46.4477C49.7367 45.7001 50.5247 44.9625 51.3128 44.2247L51.3131 44.2244L51.3134 44.2242C51.6912 43.8705 52.069 43.5168 52.4461 43.162C52.491 43.1137 52.5408 43.0612 52.5982 43.0008ZM36.5958 39.222C36.7022 39.2345 37.7365 40.3172 37.7365 40.3955C37.7365 40.5155 37.6517 40.5831 37.5698 40.6483C37.545 40.6681 37.5205 40.6877 37.4986 40.7084C37.304 40.8916 37.1104 41.0765 36.9166 41.2617L36.9165 41.2617C36.4482 41.7091 35.9787 42.1577 35.4895 42.586C35.1609 42.8723 35.2032 43.0272 35.5051 43.2932C35.9026 43.6409 36.2865 44.0043 36.6704 44.3677L36.6704 44.3678C36.9515 44.6338 37.2326 44.8999 37.519 45.1598C37.7302 45.3523 37.7709 45.4727 37.5581 45.7168L37.5345 45.7438C37.0914 46.2497 36.8682 46.5045 36.6324 46.5168C36.393 46.5293 36.1406 46.292 35.632 45.8138L35.6303 45.8123C35.3864 45.5827 35.1429 45.3522 34.8992 45.1216L34.8988 45.1212C34.2361 44.494 33.5729 43.8665 32.9014 43.2556C32.6589 43.0335 32.5713 42.9052 32.8717 42.6298C33.6248 41.9461 34.3648 41.2487 35.105 40.5512L35.1052 40.551L35.1058 40.5504C35.485 40.1931 35.8642 39.8357 36.2453 39.4802C36.2701 39.4564 36.2939 39.4306 36.3179 39.4047C36.3981 39.3178 36.4788 39.2304 36.5958 39.222ZM45.919 40.3705C45.9503 40.3278 45.9862 40.2788 46.0291 40.2208C45.9342 40.1816 45.8431 40.134 45.7568 40.0784C45.5005 39.8998 45.2569 39.7037 45.0276 39.4916C44.7319 39.1928 44.5535 39.2554 44.3031 39.5683C43.2408 40.9071 42.1659 42.2361 41.0913 43.5648C40.7431 43.9954 40.3948 44.426 40.0471 44.8568C39.6324 45.3716 39.4274 45.6259 39.4546 45.8522C39.4818 46.0785 39.7412 46.2768 40.2552 46.6796C40.5415 46.9034 40.6808 46.8846 40.903 46.6061C41.9942 45.2437 43.0904 43.8871 44.1863 42.5309C44.709 41.8841 45.2317 41.2373 45.7537 40.59C45.8032 40.5286 45.8498 40.465 45.919 40.3705Z" fill="#00B0ED"/>
</svg>
