<svg width="61" height="61" viewBox="0 0 61 61" fill="none" xmlns="http://www.w3.org/2000/svg">
<path d="M29.4727 10.5316C29.4727 9.3677 29.4606 8.20378 29.4727 7.04159C29.4846 6.69828 29.3813 6.36086 29.1791 6.08317C28.2949 4.83716 27.0399 3.90218 25.5929 3.4116C24.146 2.92102 22.5811 2.89989 21.1214 3.35124C19.6615 3.80701 18.383 4.71262 17.4687 5.93864C16.5544 7.16466 16.0511 8.64834 16.0306 10.1776C16.0159 10.806 16.192 11.4241 16.5357 11.9504C16.8795 12.4767 17.3747 12.8864 17.9561 13.1254C18.5265 13.3639 19.1557 13.4243 19.761 13.2985C20.3663 13.1727 20.9195 12.8668 21.3477 12.4208C21.7888 11.9722 22.0819 11.3991 22.1875 10.7789C22.2931 10.1586 22.2061 9.52086 21.9383 8.95152C21.9124 8.8928 21.8778 8.83754 21.8519 8.77883C21.5549 8.10189 21.6999 7.57001 22.2508 7.28162C22.8017 6.99324 23.3923 7.21254 23.7221 7.90157C24.6667 9.87022 24.5096 11.7715 23.1505 13.476C21.7915 15.1804 19.9903 15.7813 17.9008 15.265C15.8458 14.7469 14.5282 13.3965 14.1017 11.3087C13.967 10.656 13.701 10.4453 13.0845 10.3607C9.18351 9.78388 5.52597 12.2792 4.7955 16.0594C4.42461 17.9056 4.78826 19.8237 5.80919 21.406C6.83011 22.9883 8.42783 24.1102 10.2628 24.5332C11.0589 24.7249 11.8705 24.8406 12.6804 24.6195C13.0868 24.5111 13.4669 24.3213 13.7977 24.0616C14.1286 23.802 14.4033 23.4779 14.6053 23.109C14.8073 22.7401 14.9323 22.3341 14.9727 21.9155C15.0132 21.4968 14.9683 21.0744 14.8408 20.6736C14.7109 20.2793 14.5034 19.915 14.2304 19.6022C13.9574 19.2894 13.6245 19.0344 13.2514 18.8524C12.8783 18.6703 12.4725 18.5649 12.058 18.5422C11.6435 18.5196 11.2286 18.5802 10.8379 18.7205C10.6773 18.7792 10.5236 18.8621 10.3647 18.9243C9.78792 19.1522 9.22668 18.9743 8.98319 18.4891C8.7397 18.0038 8.9262 17.3942 9.48398 17.0679C11.2765 16.0179 13.8167 16.3564 15.4193 17.8536C16.223 18.5991 16.7676 19.5817 16.9739 20.6583C17.1801 21.7349 17.0372 22.8493 16.5659 23.839C15.5747 25.9337 13.3902 27.0631 10.9518 26.7643C8.68961 26.4846 6.73996 25.571 5.1754 23.9046C4.8542 23.5592 4.68152 23.6663 4.40176 23.9046C3.61318 24.5836 3.04647 25.4836 2.77494 26.4881C2.5034 27.4927 2.53953 28.5556 2.87865 29.5394C3.22064 30.5225 3.8526 31.3788 4.69115 31.9954C5.52971 32.6119 6.53547 32.9598 7.57578 32.9932C9.53579 33.0294 11.4975 33.0035 13.4575 33.0053C13.651 32.9975 13.8447 33.001 14.0378 33.0156C14.2989 33.0353 14.5429 33.153 14.7207 33.3453C14.8985 33.5375 14.9969 33.7899 14.9962 34.0518C14.9999 34.1824 14.9775 34.3124 14.9303 34.4343C14.8831 34.5561 14.8121 34.6673 14.7214 34.7614C14.6307 34.8555 14.5221 34.9305 14.4021 34.9821C14.282 35.0337 14.1529 35.0609 14.0222 35.062C11.5476 35.0378 9.05399 35.3107 6.59664 34.9411C3.61776 34.4921 1.6353 32.6789 0.81503 29.8019C-0.0156011 26.8887 0.815029 24.3519 3.08588 22.34C3.50206 21.9705 3.60395 21.7495 3.37945 21.1986C1.9824 17.8381 2.34332 14.6278 4.58827 11.7698C6.86776 8.87036 9.94161 7.77724 13.5905 8.35747C14.043 8.42827 14.1448 8.3402 14.2674 7.91712C15.2656 4.45299 17.4967 2.14069 20.9902 1.25653C24.4837 0.372363 27.5524 1.33251 30.0581 3.9332C30.4587 4.34765 30.6089 4.27857 30.9716 3.90729C33.4911 1.31696 36.5598 0.367179 40.0515 1.26343C43.4863 2.14414 45.7123 4.40981 46.7087 7.82559C46.852 8.31602 46.9884 8.42827 47.5169 8.34365C53.5005 7.39732 58.6259 11.9131 58.4169 17.9244C58.3837 19.0906 58.1072 20.2369 57.6053 21.2901C57.4015 21.708 57.4326 21.9239 57.8074 22.2364C60.0437 24.1239 60.9365 26.5536 60.2992 29.3978C59.662 32.242 57.8074 34.0915 54.9459 34.8617C54.3616 35.012 53.7601 35.0846 53.1569 35.0775C51.2176 35.0775 49.2783 35.0775 47.3407 35.0775C46.4773 35.0775 45.9972 34.6803 46.0145 34.0172C46.0317 33.3541 46.4997 33.0122 47.3304 33.0105C49.3335 33.0105 51.3367 33.0277 53.3399 33.0018C54.3822 32.9881 55.3957 32.6574 56.2455 32.0538C57.0954 31.4501 57.7413 30.602 58.0975 29.6223C58.4541 28.6564 58.5147 27.6061 58.2717 26.6056C58.0287 25.605 57.4931 24.6995 56.7332 24.0048C56.3689 23.6594 56.1564 23.573 55.7195 24.0048C53.6179 26.0977 51.0777 27.146 48.1057 26.6607C46.0024 26.3153 44.652 24.9442 44.1201 22.8926C43.5865 20.8066 44.1995 18.983 45.8694 17.6274C47.5393 16.2718 49.3784 16.0922 51.3246 16.9608C52.0551 17.2855 52.3193 17.8691 52.0465 18.4511C51.7874 19.002 51.1986 19.1557 50.4923 18.8552C50.3938 18.812 50.2971 18.7619 50.1952 18.7274C49.0123 18.3147 47.9313 18.5115 47.0161 19.3594C46.1008 20.2073 45.8072 21.2694 46.1388 22.4799C46.5636 24.0168 47.9814 24.8786 49.7653 24.7041C53.3036 24.3588 56.1116 21.4973 56.3378 18.0056C56.4579 16.2807 55.9579 14.5697 54.9279 13.181C53.8979 11.7922 52.4057 10.8171 50.7202 10.4315C49.7505 10.2197 48.7489 10.1974 47.7707 10.3658C47.2526 10.4453 47.0299 10.6611 46.9349 11.1982C46.7327 12.3427 46.146 13.3839 45.2719 14.1497C44.3977 14.9155 43.2884 15.3602 42.1273 15.4101C40.9665 15.4649 39.8212 15.1267 38.8764 14.4502C37.9317 13.7736 37.2426 12.7983 36.9207 11.6817C36.5545 10.4727 36.6587 9.16995 37.2125 8.03454C37.5838 7.24536 38.1261 6.97079 38.7253 7.25227C39.3245 7.53375 39.4575 8.07771 39.0879 8.90489C38.5336 10.1482 38.7426 11.4382 39.6388 12.3794C40.0674 12.8385 40.6269 13.1547 41.2414 13.285C41.8558 13.4154 42.4954 13.3536 43.0736 13.1081C43.6555 12.8676 44.1497 12.4544 44.4894 11.9242C44.8291 11.3939 44.9979 10.7723 44.9732 10.1431C44.9579 8.26699 44.2004 6.47327 42.8664 5.1541C42.1271 4.41192 41.2357 3.83892 40.2536 3.47463C39.2714 3.11034 38.222 2.96343 37.1776 3.04404C36.1332 3.12464 35.1187 3.43084 34.2041 3.94151C33.2895 4.45219 32.4965 5.15518 31.8799 6.002C31.6471 6.30826 31.5253 6.68461 31.5345 7.06922C31.5518 9.32971 31.5432 11.5919 31.5432 13.8541C31.5432 14.0268 31.5432 14.1995 31.5432 14.3722C31.5 14.9904 31.0907 15.4083 30.5312 15.4222C29.9458 15.4325 29.4951 14.9991 29.4865 14.3446C29.4606 13.0736 29.4727 11.8009 29.4727 10.5316Z" fill="#00B0ED"/>
<path d="M35.6756 19.8966V19.9605C35.6756 20.4786 35.5116 21.1003 35.743 21.4819C35.9744 21.8635 36.6531 21.5752 37.1245 21.6546C37.8664 21.7657 38.5441 22.1383 39.0356 22.7051C39.527 23.2719 39.7997 23.9956 39.8046 24.7457C39.8271 25.7715 39.8271 25.7715 40.8701 25.7715C41.5177 25.7715 42.1635 25.7594 42.8094 25.7715C43.5001 25.787 43.956 26.2274 43.9353 26.8335C43.9163 27.4138 43.4777 27.8196 42.8094 27.8317C41.9701 27.8472 41.1274 27.8731 40.2899 27.8317C39.6423 27.7919 39.7252 28.2565 39.8288 28.5362C40.0015 28.9887 39.252 29.7968 40.2743 29.8953C41.0635 29.973 41.8665 29.9074 42.6626 29.9126C43.4587 29.9177 43.9457 30.3132 43.9353 30.959C43.925 31.6049 43.4535 31.9744 42.6333 31.9779C41.813 31.9814 41.0393 31.9934 40.2432 31.9779C39.91 31.9693 39.8081 32.066 39.796 32.4114C39.739 34.0536 39.7269 34.0519 41.3502 34.0536C41.8682 34.0536 42.3863 34.0346 42.9044 34.0536C43.0401 34.0511 43.175 34.0757 43.3011 34.1262C43.4271 34.1766 43.5418 34.2517 43.6384 34.3471C43.735 34.4426 43.8114 34.5564 43.8633 34.6818C43.9152 34.8073 43.9415 34.9419 43.9405 35.0777C43.9426 35.2132 43.9175 35.3477 43.8666 35.4733C43.8157 35.5989 43.7401 35.713 43.6442 35.8089C43.5484 35.9047 43.4343 35.9803 43.3087 36.0312C43.1831 36.0821 43.0485 36.1073 42.913 36.1052C42.0496 36.1311 41.1861 36.138 40.3227 36.1052C39.8823 36.0879 39.7666 36.245 39.8046 36.6543C39.8685 37.4677 39.7373 38.2482 39.2451 38.9252C38.9335 39.3828 38.5032 39.7471 38.0003 39.9789C37.4975 40.2107 36.941 40.3013 36.3906 40.241C35.7844 40.1927 35.6204 40.4016 35.6618 40.9819C35.7119 41.6726 35.6774 42.3634 35.6739 43.0541C35.6739 43.9176 35.2819 44.4011 34.6205 44.389C33.9591 44.3769 33.6103 43.9055 33.6068 43.0818C33.6068 42.2857 33.5913 41.4879 33.6068 40.6918C33.6068 40.355 33.5119 40.26 33.1717 40.2479C31.5311 40.1927 31.5328 40.1806 31.5328 41.8021C31.5328 42.296 31.5449 42.7934 31.5328 43.2873C31.5087 43.9469 31.0873 44.3821 30.4967 44.3821C29.9061 44.3821 29.4848 43.9469 29.4606 43.2873C29.4433 42.448 29.4416 41.607 29.4606 40.7677C29.4692 40.4016 29.4053 40.2497 28.9771 40.2376C27.3849 40.2203 27.3849 40.2013 27.3849 41.7831C27.3849 42.2788 27.397 42.7744 27.3849 43.27C27.3624 43.9348 26.9549 44.3717 26.3712 44.3821C25.7875 44.3925 25.3351 43.94 25.3247 43.2406C25.3109 42.4221 25.3005 41.6018 25.3247 40.785C25.3385 40.3706 25.228 40.2082 24.7928 40.2428C24.1029 40.3287 23.4034 40.1958 22.7931 39.8629C21.6413 39.1859 21.1094 38.1619 21.1888 36.846C21.2251 36.2727 21.0766 36.0516 20.4653 36.1C19.7158 36.1587 18.9577 36.1242 18.2048 36.1103C17.495 36.0982 17.046 35.6855 17.0478 35.0742C17.0495 34.4629 17.4967 34.0571 18.2082 34.0381C19.0268 34.026 19.8453 34.0208 20.6638 34.0381C21.0317 34.0484 21.1819 33.9811 21.1923 33.5545C21.2095 31.9641 21.2285 31.9641 19.6381 31.9641C19.1856 31.9641 18.7332 31.9641 18.2808 31.9641C17.5088 31.9537 17.0529 31.5755 17.0409 30.9487C17.0288 30.3218 17.5054 29.9126 18.3118 29.8987C19.1183 29.8849 19.9058 29.8815 20.7018 29.8987C21.061 29.9091 21.1733 29.8072 21.1819 29.4342C21.2199 27.823 21.232 27.8247 19.6571 27.823C19.139 27.823 18.621 27.8386 18.1029 27.823C17.4536 27.7971 17.0219 27.3516 17.0374 26.7662C17.0401 26.6309 17.0696 26.4974 17.1244 26.3737C17.1792 26.25 17.2581 26.1384 17.3565 26.0455C17.4549 25.9525 17.5708 25.8801 17.6975 25.8325C17.8241 25.7849 17.959 25.763 18.0942 25.768C18.9577 25.7456 19.8211 25.7387 20.6846 25.768C21.0956 25.7836 21.2026 25.6454 21.1802 25.25C21.1081 24.6474 21.1975 24.0365 21.4392 23.4799C22.0695 22.1778 23.1281 21.5493 24.558 21.6321C25.1935 21.6684 25.3765 21.4802 25.323 20.8585C25.2643 20.1678 25.3074 19.477 25.3109 18.7862C25.3109 17.9642 25.6856 17.4928 26.3263 17.4807C26.967 17.4686 27.3745 17.9573 27.378 18.8173C27.378 19.6134 27.3901 20.4112 27.378 21.2073C27.378 21.5095 27.466 21.6028 27.7769 21.6201C29.452 21.7133 29.452 21.7237 29.452 20.0313C29.452 19.5357 29.4381 19.0401 29.452 18.5462C29.4796 17.8986 29.9251 17.4635 30.5088 17.4807C30.6442 17.4841 30.7776 17.5142 30.9012 17.5695C31.0249 17.6247 31.1364 17.7039 31.2292 17.8025C31.322 17.9011 31.3944 18.0172 31.442 18.144C31.4897 18.2707 31.5118 18.4057 31.507 18.541C31.5294 19.4045 31.5501 20.2679 31.507 21.1313C31.4759 21.7012 31.842 21.7081 32.1476 21.5993C32.6242 21.4266 33.4411 22.1312 33.5671 21.1521C33.6707 20.3473 33.5827 19.5184 33.5913 18.6999C33.5913 17.9453 34.0058 17.4807 34.6274 17.4911C35.2491 17.5014 35.6394 17.9625 35.6497 18.7258C35.6808 19.1213 35.6756 19.5081 35.6756 19.8966ZM30.5693 23.6958C28.5661 23.6958 26.5629 23.6958 24.5597 23.6958C23.6306 23.6958 23.2697 24.0584 23.268 24.9875C23.268 28.9513 23.268 32.915 23.268 36.8788C23.268 37.8061 23.6324 38.1688 24.5597 38.1705C28.5235 38.1705 32.4872 38.1705 36.451 38.1705C37.3766 38.1705 37.741 37.8061 37.7427 36.8788C37.7427 32.915 37.7427 28.9513 37.7427 24.9875C37.7427 24.0601 37.3784 23.6975 36.451 23.6958C34.491 23.694 32.5396 23.6975 30.5693 23.6975V23.6958Z" fill="#00B0ED"/>
<path d="M14.3176 42.3115C15.0498 42.3115 15.7837 42.2821 16.5125 42.3218C16.9856 42.3495 17.0858 42.1751 17.072 41.7382C17.0409 40.7936 17.0564 39.8386 17.072 38.8974C17.072 38.1342 17.4674 37.6714 18.0926 37.6627C18.7177 37.6541 19.1287 38.1186 19.1287 38.8715C19.1368 40.2933 19.1368 41.714 19.1287 43.1335C19.1287 44.0073 18.7488 44.3734 17.856 44.3768C16.3933 44.3768 14.9203 44.3907 13.4662 44.3768C13.0587 44.3768 12.8964 44.4632 12.9171 44.8949C12.9534 45.6461 12.943 46.4025 12.9171 47.1537C12.8977 47.2976 12.9272 47.4439 13.0008 47.5691C13.0743 47.6943 13.1878 47.7913 13.3229 47.8444C13.9444 48.1562 14.4393 48.6727 14.7244 49.3069C15.0094 49.941 15.067 50.6541 14.8875 51.3258C14.7247 51.9894 14.3462 52.5802 13.8115 53.0055C13.2767 53.4309 12.616 53.6667 11.9328 53.6761C11.2404 53.6854 10.5648 53.4621 10.0144 53.042C9.46396 52.6218 9.07046 52.029 8.89692 51.3586C8.711 50.6884 8.76325 49.9743 9.04476 49.3383C9.32627 48.7022 9.81962 48.1834 10.4408 47.8703C10.7861 47.6821 10.8673 47.4714 10.8638 47.1174C10.8466 45.9345 10.8517 44.7498 10.8638 43.5669C10.8638 42.6828 11.2368 42.3236 12.1279 42.3149C12.8532 42.3063 13.5854 42.3115 14.3176 42.3115ZM12.9206 50.5919C12.9206 50.3195 12.8133 50.058 12.622 49.8641C12.4306 49.6702 12.1706 49.5594 11.8982 49.5558C11.6261 49.5557 11.3649 49.6628 11.171 49.8537C10.9772 50.0447 10.8662 50.3043 10.8621 50.5763C10.8621 50.8485 10.9691 51.1097 11.1601 51.3036C11.351 51.4974 11.6106 51.6084 11.8827 51.6125C12.1551 51.613 12.4168 51.5061 12.611 51.3151C12.8053 51.1241 12.9165 50.8643 12.9206 50.5919Z" fill="#00B0ED"/>
<path d="M45.3185 44.3803C44.5656 44.3803 43.8127 44.3889 43.0597 44.3803C42.3068 44.3717 41.8958 43.9883 41.8906 43.2319C41.8768 41.7675 41.8768 40.3037 41.8906 38.8405C41.8906 38.1238 42.2965 37.6765 42.9043 37.6662C43.5122 37.6558 43.9405 38.1221 43.9525 38.875C43.9629 39.8438 43.9733 40.8126 43.9525 41.7796C43.9405 42.1906 44.0441 42.3357 44.481 42.327C45.9436 42.2994 47.408 42.3132 48.8724 42.3184C49.7998 42.3184 50.159 42.6811 50.1641 43.6067C50.1641 44.7913 50.1762 45.9742 50.1641 47.1589C50.1459 47.302 50.1753 47.4472 50.2477 47.572C50.3201 47.6968 50.4315 47.7943 50.5648 47.8496C51.187 48.1599 51.6831 48.6753 51.9694 49.3089C52.2557 49.9425 52.3146 50.6555 52.1362 51.3276C51.9719 52.0021 51.5849 52.6016 51.0378 53.029C50.4906 53.4564 49.8154 53.6868 49.1211 53.683C48.4348 53.683 47.7679 53.4546 47.2258 53.0337C46.6836 52.6129 46.2969 52.0235 46.1267 51.3586C45.9401 50.6889 45.9913 49.9752 46.2715 49.339C46.5517 48.7027 47.0436 48.1831 47.6636 47.8686C47.8095 47.8109 47.9314 47.7052 48.0092 47.569C48.0871 47.4328 48.1162 47.2741 48.0919 47.1191C48.0712 46.3887 48.0539 45.653 48.0919 44.9243C48.1195 44.4477 47.9382 44.3492 47.5047 44.3699C46.7794 44.4045 46.0455 44.3803 45.3185 44.3803ZM49.1176 51.6142C49.3924 51.6142 49.656 51.5051 49.8503 51.3107C50.0446 51.1164 50.1538 50.8529 50.1538 50.5781C50.1538 50.3033 50.0446 50.0398 49.8503 49.8454C49.656 49.6511 49.3924 49.542 49.1176 49.542C48.8446 49.5419 48.5826 49.6497 48.3886 49.8418C48.1946 50.0338 48.0842 50.2947 48.0815 50.5677C48.0801 50.7047 48.1059 50.8405 48.1574 50.9674C48.2088 51.0943 48.285 51.2098 48.3813 51.3071C48.4777 51.4044 48.5923 51.4817 48.7187 51.5344C48.8451 51.5871 48.9807 51.6142 49.1176 51.6142Z" fill="#00B0ED"/>
<path d="M22.7931 46.4473C23.9121 46.4473 25.038 46.4473 26.1519 46.4473C26.9221 46.4473 27.3831 46.8341 27.397 47.4575C27.4108 48.081 26.9342 48.5109 26.1329 48.5127C24.3248 48.5127 22.5151 48.5248 20.707 48.5127C20.3064 48.5127 20.1475 48.5921 20.1544 49.0307C20.1803 50.8163 20.1717 52.6054 20.1544 54.3841C20.1366 54.5274 20.1664 54.6726 20.239 54.7973C20.3117 54.9221 20.4233 55.0196 20.5568 55.0748C21.1789 55.386 21.6746 55.9023 21.9602 56.5365C22.2459 57.1708 22.304 57.8841 22.1248 58.5562C21.9619 59.2203 21.5833 59.8115 21.0483 60.2371C20.5132 60.6628 19.852 60.8988 19.1684 60.9082C18.4764 60.9166 17.8015 60.6929 17.2516 60.2728C16.7016 59.8527 16.3082 59.2606 16.1342 58.5908C15.9496 57.9195 16.0036 57.205 16.287 56.5692C16.5704 55.9333 17.0658 55.4155 17.6884 55.1042C18.0459 54.9142 18.108 54.6984 18.1063 54.3495C18.096 52.1737 18.1063 49.9995 18.1063 47.8236C18.1063 46.7772 18.4413 46.4508 19.5086 46.4421C20.5965 46.4456 21.6948 46.4473 22.7931 46.4473ZM19.1235 56.7948C18.8511 56.7984 18.5911 56.9092 18.3997 57.1031C18.2084 57.297 18.1011 57.5585 18.1011 57.8309C18.1043 58.1036 18.2149 58.3641 18.4089 58.5558C18.6028 58.7475 18.8646 58.855 19.1373 58.855C19.4097 58.8513 19.6697 58.7406 19.861 58.5467C20.0523 58.3527 20.1596 58.0913 20.1596 57.8188C20.1564 57.5461 20.0458 57.2857 19.8519 57.094C19.6579 56.9023 19.3962 56.7948 19.1235 56.7948Z" fill="#00B0ED"/>
<path d="M38.2642 46.4491C39.4057 46.4491 40.5472 46.4491 41.6886 46.4491C42.5331 46.4491 42.9095 46.8307 42.913 47.6751C42.913 49.8942 42.9251 52.1115 42.913 54.3305C42.8928 54.4951 42.9273 54.6617 43.0113 54.8047C43.0953 54.9476 43.224 55.059 43.3775 55.1215C43.9824 55.4417 44.4609 55.9577 44.7347 56.585C45.0085 57.2123 45.0615 57.9139 44.8851 58.5752C44.7215 59.2392 44.342 59.8301 43.8063 60.2551C43.2706 60.6802 42.609 60.9154 41.9252 60.9238C41.242 60.9296 40.5759 60.7101 40.0299 60.2993C39.484 59.8885 39.0886 59.3093 38.9049 58.6512C38.7113 57.9947 38.747 57.2918 39.0063 56.6584C39.2656 56.0249 39.7329 55.4987 40.3313 55.1664C40.7682 54.928 40.8701 54.669 40.8632 54.2166C40.8373 52.4897 40.8407 50.7628 40.8632 49.048C40.8632 48.6284 40.7544 48.5006 40.3278 48.5075C38.4766 48.5299 36.6237 48.5248 34.7725 48.5075C34.0006 48.5075 33.4842 47.9359 33.6414 47.2797C33.783 46.696 34.1922 46.4404 34.7846 46.4421C35.9381 46.4508 37.102 46.4491 38.2642 46.4491ZM42.9095 57.8258C42.9096 57.5528 42.8018 57.2908 42.6097 57.0967C42.4177 56.9027 42.1568 56.7924 41.8838 56.7896C41.6108 56.7896 41.3488 56.8974 41.1548 57.0894C40.9607 57.2815 40.8504 57.5424 40.8476 57.8154C40.8476 58.0884 40.9554 58.3504 41.1474 58.5444C41.3395 58.7384 41.6004 58.8488 41.8734 58.8515C42.1464 58.8515 42.4084 58.7438 42.6024 58.5517C42.7964 58.3596 42.9068 58.0988 42.9095 57.8258Z" fill="#00B0ED"/>
<path d="M9.82422 37.1413C11.1384 37.1413 12.4525 37.1413 13.765 37.1413C14.5231 37.1413 14.9893 37.5489 14.9876 38.1775C14.9859 38.8061 14.5231 39.2136 13.765 39.2136C11.6323 39.2136 9.50129 39.2136 7.3755 39.2274C7.16482 39.2274 6.76072 39.0288 6.75381 39.4295C6.74691 39.8301 6.49132 40.2929 7.08537 40.6037C8.40816 41.2945 9.02985 42.6553 8.72074 43.9988C8.57514 44.6766 8.20712 45.2863 7.67518 45.731C7.14325 46.1756 6.47794 46.4296 5.78503 46.4527C5.09105 46.4687 4.41169 46.2519 3.85523 45.8369C3.29878 45.4219 2.89724 44.8326 2.71463 44.1628C2.52076 43.4959 2.56279 42.7826 2.83364 42.143C3.10449 41.5035 3.5876 40.9769 4.20149 40.6521C4.56586 40.457 4.68501 40.2463 4.66083 39.856C4.62802 39.3379 4.64356 38.8199 4.66083 38.3018C4.6781 37.5402 5.05801 37.1534 5.82475 37.1465C7.15445 37.1327 8.48934 37.1413 9.82422 37.1413ZM6.71583 43.3771C6.72237 43.1046 6.62126 42.8405 6.43443 42.642C6.24759 42.4436 5.99008 42.3267 5.71768 42.3168C5.44519 42.3103 5.18109 42.4114 4.98262 42.5982C4.78415 42.785 4.66729 43.0425 4.65737 43.3149C4.65083 43.5874 4.75194 43.8515 4.93877 44.05C5.12561 44.2485 5.38312 44.3653 5.65552 44.3752C5.92801 44.3818 6.19211 44.2807 6.39058 44.0939C6.58905 43.907 6.70591 43.6495 6.71583 43.3771Z" fill="#00B0ED"/>
<path d="M51.19 37.1414C52.5042 37.1414 53.8183 37.1414 55.1308 37.1414C55.9769 37.1414 56.3396 37.5213 56.362 38.364C56.3741 38.5572 56.3741 38.751 56.362 38.9442C56.2774 39.8077 56.4 40.4483 57.279 40.9958C58.4377 41.7193 58.714 43.2545 58.1925 44.5221C57.9407 45.1337 57.5002 45.6491 56.9353 45.9932C56.3704 46.3373 55.7104 46.4922 55.0513 46.4354C54.393 46.3711 53.7722 46.0995 53.2781 45.6598C52.784 45.22 52.4423 44.6348 52.3021 43.9884C52.0103 42.714 52.5732 41.2997 53.7751 40.697C54.4262 40.3706 54.3018 39.9044 54.2829 39.4208C54.2708 39.0755 53.9565 39.2153 53.7769 39.2136C51.6229 39.2056 49.4695 39.2056 47.3166 39.2136C46.9868 39.2136 46.6656 39.1963 46.4065 38.9649C46.2414 38.8401 46.1209 38.6653 46.063 38.4664C46.0051 38.2676 46.013 38.0555 46.0853 37.8615C46.1516 37.6425 46.2901 37.4524 46.4783 37.3222C46.6665 37.1921 46.8932 37.1295 47.1215 37.1448L51.19 37.1414ZM55.2983 42.322C55.0259 42.3319 54.7683 42.4488 54.5815 42.6472C54.3947 42.8457 54.2936 43.1098 54.3001 43.3823C54.31 43.6547 54.4269 43.9122 54.6254 44.0991C54.8238 44.2859 55.0879 44.387 55.3604 44.3804C55.6328 44.3705 55.8903 44.2537 56.0772 44.0552C56.264 43.8567 56.3651 43.5926 56.3586 43.3201C56.35 43.0459 56.233 42.7863 56.0333 42.5982C55.8335 42.4101 55.5673 42.3089 55.2931 42.3168L55.2983 42.322Z" fill="#00B0ED"/>
<path d="M31.5398 51.0875C31.5398 52.2065 31.5501 53.3238 31.5398 54.4428C31.525 54.5773 31.555 54.7128 31.6253 54.8284C31.6956 54.944 31.8021 55.0331 31.9283 55.0818C33.2528 55.7933 33.8641 57.1644 33.5153 58.5511C33.3553 59.2261 32.9723 59.8275 32.4284 60.258C31.8844 60.6885 31.2112 60.9231 30.5174 60.9238C29.8353 60.9219 29.1728 60.6956 28.632 60.28C28.0912 59.8643 27.7021 59.2823 27.5248 58.6236C27.1431 57.2093 27.7372 55.8192 29.0876 55.0887C29.2209 55.0313 29.3319 54.9319 29.4035 54.8056C29.4752 54.6794 29.5038 54.5332 29.4848 54.3893C29.4733 52.1524 29.4733 49.9161 29.4848 47.6804C29.4848 46.9723 29.8163 46.5389 30.3827 46.4595C31.0234 46.3714 31.538 46.8601 31.5467 47.6044C31.5484 48.7683 31.538 49.927 31.5398 51.0875ZM31.5398 57.8448C31.5435 57.5726 31.44 57.3099 31.2516 57.1134C31.0632 56.917 30.8051 56.8025 30.533 56.7948C30.2608 56.7911 29.9981 56.8946 29.8016 57.083C29.6052 57.2714 29.4907 57.5295 29.483 57.8016C29.4788 58.0741 29.5822 58.3372 29.7706 58.5341C29.959 58.7309 30.2174 58.8456 30.4898 58.8533C30.7611 58.8552 31.0223 58.7506 31.2173 58.5621C31.4123 58.3735 31.5256 58.116 31.5328 57.8448H31.5398Z" fill="#00B0ED"/>
<path d="M12.9205 5.0782C12.9205 5.35033 12.8135 5.61154 12.6225 5.80541C12.4316 5.99929 12.172 6.11025 11.8999 6.11433C11.6278 6.11436 11.3666 6.00734 11.1727 5.81638C10.9788 5.62541 10.8679 5.36585 10.8638 5.09375C10.8637 4.82192 10.9705 4.56095 11.1611 4.36713C11.3517 4.1733 11.6108 4.06215 11.8826 4.05762C12.1551 4.05713 12.4167 4.16395 12.611 4.35496C12.8052 4.54598 12.9164 4.80581 12.9205 5.0782Z" fill="#00B0ED"/>
<path d="M49.1177 4.0542C49.3907 4.05693 49.6516 4.1673 49.8437 4.36132C50.0358 4.55533 50.1435 4.81732 50.1435 5.09033C50.1435 5.36513 50.0343 5.62867 49.84 5.82298C49.6457 6.01729 49.3822 6.12646 49.1074 6.12646C48.8344 6.12373 48.5735 6.01336 48.3814 5.81934C48.1893 5.62533 48.0816 5.36334 48.0816 5.09033C48.0816 4.81553 48.1908 4.55198 48.3851 4.35767C48.5794 4.16336 48.8429 4.0542 49.1177 4.0542Z" fill="#00B0ED"/>
<path d="M12.9205 57.7929C12.927 58.0654 12.8259 58.3295 12.6391 58.5279C12.4523 58.7264 12.1948 58.8433 11.9224 58.8532C11.6499 58.8597 11.3858 58.7586 11.1873 58.5718C10.9888 58.3849 10.872 58.1274 10.8621 57.855C10.8555 57.5825 10.9566 57.3184 11.1435 57.12C11.3303 56.9215 11.5878 56.8046 11.8602 56.7947C12.1327 56.7882 12.3968 56.8893 12.5953 57.0761C12.7937 57.263 12.9106 57.5205 12.9205 57.7929Z" fill="#00B0ED"/>
<path d="M49.0883 58.8534C48.8159 58.8435 48.5584 58.7266 48.3715 58.5281C48.1847 58.3297 48.0836 58.0656 48.0901 57.7931C48.1001 57.521 48.2167 57.2637 48.4148 57.0769C48.6129 56.8902 48.8765 56.7889 49.1487 56.7949C49.4208 56.8049 49.6781 56.9215 49.8648 57.1196C50.0516 57.3177 50.1529 57.5813 50.1469 57.8535C50.1374 58.1259 50.021 58.3836 49.8228 58.5708C49.6247 58.7579 49.3608 58.8594 49.0883 58.8534Z" fill="#00B0ED"/>
<path d="M30.5054 35.0728C29.5366 35.0728 28.5661 35.0728 27.5973 35.0728C26.7528 35.0642 26.3747 34.6912 26.3712 33.8467C26.3643 31.908 26.3643 29.9693 26.3712 28.0306C26.3712 27.1861 26.7511 26.808 27.5956 26.8045C29.5354 26.7976 31.4741 26.7976 33.4117 26.8045C34.2579 26.8045 34.6361 27.1861 34.6395 28.0306C34.6464 29.9681 34.6464 31.9069 34.6395 33.8467C34.6395 34.6894 34.2562 35.0642 33.4134 35.0728C32.4447 35.0797 31.4741 35.0728 30.5054 35.0728ZM30.495 33.0006C31.0321 33.0006 31.5708 32.9798 32.1062 33.0006C32.4706 33.0178 32.5897 32.9021 32.5811 32.5326C32.5592 31.4561 32.5592 30.3809 32.5811 29.3067C32.5914 28.9217 32.4447 28.8439 32.0958 28.8491C31.0217 28.8675 29.947 28.8675 28.8717 28.8491C28.5367 28.8491 28.4245 28.9407 28.4297 29.2843C28.4504 30.3791 28.4504 31.4757 28.4297 32.574C28.4297 32.9298 28.5609 33.0092 28.8821 32.9971C29.4192 32.9902 29.9493 33.004 30.495 33.0057V33.0006Z" fill="#00B0ED"/>
</svg>
